<?xml version="1.0" encoding="UTF-8" standalone="no"?>
<!-- Created with Inkscape (http://www.inkscape.org/) -->

<svg
   xmlns:dc="http://purl.org/dc/elements/1.1/"
   xmlns:cc="http://creativecommons.org/ns#"
   xmlns:rdf="http://www.w3.org/1999/02/22-rdf-syntax-ns#"
   xmlns:svg="http://www.w3.org/2000/svg"
   xmlns="http://www.w3.org/2000/svg"
   xmlns:sodipodi="http://sodipodi.sourceforge.net/DTD/sodipodi-0.dtd"
   xmlns:inkscape="http://www.inkscape.org/namespaces/inkscape"
   version="1.1"
   width="120"
   height="143"
   id="svg2"
   sodipodi:docname="Atari_logo.svg"
   inkscape:version="0.92.4 (5da689c313, 2019-01-14)">
  <metadata
     id="metadata14">
    <rdf:RDF>
      <cc:Work
         rdf:about="">
        <dc:format>image/svg+xml</dc:format>
        <dc:type
           rdf:resource="http://purl.org/dc/dcmitype/StillImage" />
      </cc:Work>
    </rdf:RDF>
  </metadata>
  <sodipodi:namedview
     pagecolor="#ffffff"
     bordercolor="#666666"
     borderopacity="1"
     objecttolerance="10"
     gridtolerance="10"
     guidetolerance="10"
     inkscape:pageopacity="0"
     inkscape:pageshadow="2"
     inkscape:window-width="1544"
     inkscape:window-height="1240"
     id="namedview12"
     showgrid="false"
     inkscape:zoom="1.6503497"
     inkscape:cx="60"
     inkscape:cy="71.5"
     inkscape:window-x="1512"
     inkscape:window-y="216"
     inkscape:window-maximized="0"
     inkscape:current-layer="svg2" />
  <defs
     id="defs6" />
  <rect
     width="5.9977822"
     height="37.701492"
     x="111.20078"
     y="102.76726"
     id="rect3"
     style="opacity:0.98999999;fill:#dc285a;fill-opacity:1" />
  <path
     d="m 16.5,101.8125 c -1.889001,0 -3.50086,1.17072 -4.125,2.84375 v 0.0312 L 1.6875,140.4687 h 6.40625 l 2.46875,-9.71875 h 11.90625 l 2.59375,9.71875 H 31.625 L 20.65625,104.6562 H 20.625 c -0.630517,-1.6649 -2.234297,-2.8437 -4.125,-2.8437 z m -0.0625,8.21875 4.125,15.6875 h -8.15625 z"
     id="path5"
     style="opacity:0.98999999;fill:#dc285a;fill-opacity:1"
     inkscape:connector-curvature="0" />
  <path
     d="m 28.15625,102.625 v 5.0625 h 9.3125 v 32.78125 h 6 V 107.6875 h 9.34375 v -5.0625 z"
     id="path7"
     style="opacity:0.98999999;fill:#dc285a;fill-opacity:1"
     inkscape:connector-curvature="0" />
  <path
     d="M 35.653167,55.22868 C 45.096406,40.93045 44.883552,10.498029 44.883552,3 H 51.83681 C 51.80958,5.8867722 53.354836,34.899059 48.456035,53.169226 43.557233,71.439393 25.272682,91.932254 3.16598,91.932254 V 78.97057 c 6.5002992,0 23.043948,-9.44366 32.487187,-23.74189 z"
     id="path13"
     style="opacity:0.98999999;fill:#dc285a;fill-opacity:1"
     inkscape:connector-curvature="0" />
  <path
     d="m 98.714093,126.77975 c -0.174421,-0.29888 -0.280643,-0.65842 -0.280643,-1.05766 0,-0.36121 0.09217,-0.68765 0.233525,-0.96889 0.222364,-0.35017 0.620391,-0.54924 0.885328,-0.71745 3.122627,-1.89862 5.340907,-5.88999 5.340907,-10.51164 0,-6.19879 -3.90173,-11.2776 -8.740041,-11.66969 -0.602618,-0.0794 -1.963264,-0.0711 -1.963264,-0.0711 h -6.826373 0.0037 c -2.367491,0 -4.293556,2.56367 -4.293556,5.7229 l 0.0087,0.009 v 32.94886 h 5.830276 V 109.8672 h -0.0037 c 0,-0.95952 0.58402,-1.74148 1.302367,-1.74148 h 3.932728 c 0.357108,0 1.425124,0.0276 1.637156,0.0672 v 0.003 c 1.738833,0.19025 3.152383,1.84238 3.561982,4.02775 0.02231,0.0899 0.03803,0.17812 0.05043,0.26857 0,0.008 0,0.017 0,0.0199 0.02232,0.13354 0.03348,0.26082 0.04588,0.39095 0.02108,0.20294 0.02438,0.40973 0.02438,0.62039 0,2.01277 -0.831184,3.77354 -2.062874,4.68674 -0.249231,0.19742 -0.507968,0.37001 -0.780346,0.5178 -0.193433,0.11685 -0.417865,0.22499 -0.652217,0.33031 -1.573505,0.74005 -2.247627,1.1779 -2.903978,2.01995 -0.736121,1.02734 -1.201931,2.41534 -1.21433,3.95 -0.01155,1.44149 0.364547,2.75944 1.004778,3.77961 l 7.406672,11.66086 h 6.93549 l -8.482955,-13.68963"
     id="path9"
     style="opacity:0.98999999;fill:#dc285a;fill-opacity:1"
     inkscape:connector-curvature="0" />
  <path
     d="m 64.974576,101.81255 c -1.889001,0 -3.50086,1.17072 -4.125,2.84375 v 0.0312 l -10.6875,35.78125 h 6.40625 l 2.46875,-9.71875 h 11.90625 l 2.59375,9.71875 h 6.5625 l -10.96875,-35.8125 h -0.03125 c -0.630517,-1.66495 -2.234297,-2.84375 -4.125,-2.84375 z m -0.0625,8.21875 4.125,15.6875 h -8.15625 z"
     id="path2852"
     style="opacity:0.98999999;fill:#dc285a;fill-opacity:1"
     inkscape:connector-curvature="0" />
  <rect
     width="12.463367"
     height="89.116547"
     x="53.768318"
     y="3"
     id="rect2854"
     style="opacity:0.98999999;fill:#dc285a;fill-opacity:1" />
  <path
     d="M 84.346831,55.22868 C 74.903592,40.93045 75.116446,10.498029 75.116446,3 h -6.953258 c 0.02723,2.8867722 -1.518026,31.899059 3.380775,50.169226 4.898802,18.270167 23.183353,38.763028 45.290057,38.763028 V 78.97057 c -6.5003,0 -23.04395,-9.44366 -32.487189,-23.74189 z"
     id="path2858"
     style="opacity:0.98999999;fill:#dc285a;fill-opacity:1"
     inkscape:connector-curvature="0" />
</svg>
