<?xml version="1.0" encoding="UTF-8"?>
<!-- Created with Inkscape (http://www.inkscape.org/) -->
<svg version="1.1" viewBox="0 0 120 16.174" xmlns="http://www.w3.org/2000/svg">
 <g transform="translate(-11.83 -10.419)">
  <g transform="matrix(.64646 -.0022566 .0022566 .64646 26.762 10.863)" >
   <path d="m116.1 23.741-5.8862-4.477-7.2586-16.43s1.7371-2.8341 1.7371-2.8341h11.655l4.9039 2.8404 11.044 16.476-0.92835 4.4692-15.266-0.04443m1.017-5.6379 7.003 0.01554 0.38265-1.2956-7.3808-12.195-1.6269-0.95902-5.8795-0.00264s-0.53122 0.9571-0.53122 0.9571l6.176 12.181 1.8566 1.2991m-20.052 5.5825-1.6338-5.5932s2.7196 6e-3 2.7196 6e-3l-4.6946-14.466s-2.2494-9.906e-4 -2.2494-9.906e-4l-1.0606-3.6307h9.1371l1.492 3.635s-2.2816-9.906e-4 -2.2816-9.906e-4l5.4673 14.477s2.7586 0.0061 2.7586 0.0061 2.2997 5.6029 2.2997 5.6029-11.954-0.03479-11.954-0.03479m-24.995-0.072693-1.0487-23.613h12.871l5.1478 3.9544 3.6162 13.684s-3.7686 6.0227-3.7686 6.0227-16.818-0.04894-16.818-0.04894m5.9172-5.5966 7.0351 0.01561s1.3614-1.9375 1.3614-1.9375l-2.2125-10.986-1.7802-1.4549-5.9719-0.0027 1.5681 14.365m-29.344 5.5284-2.782-4.4327 4.3119-19.112h4.9736l-2.6878 16.674 0.9408 1.2871 6.664 0.01478 1.2363-1.2837 1.1186-16.693h4.9886l-0.04603 19.163-3.8774 4.4251s-14.84-0.04319-14.84-0.04319m-19.808-0.05764 7.5381-19.585-5.7296-0.00275s1.7762-3.8991 1.7762-3.8991h15.883l-0.97613 3.9071-5.7452-0.00281-6.2856 19.601-6.4608-0.0188m-28.832-0.083886 3.9274-5.8462 12.422 0.02711 1.8055-1.2677s1.5046-2.8466 1.5046-2.8466l-0.45667-1.1646-9.2325-0.01409-0.98706-3.5274s4.0632-5.9606 4.0632-5.9606l4.8364-2.8028h12.73l-1.8411 3.8443s-10.37-0.00495-10.37-0.00495-1.5578 0.95085-1.5578 0.95085l-1.1308 1.8273 0.38416 1.019 8.7616 0.0083s1.6399 3.4081 1.6399 3.4081-3.7263 8.0042-3.7263 8.0042l-5.8736 4.3949-16.899-0.04918" style="stroke-width:0.171043;stroke-miterlimit:4;stroke-dasharray:none;stroke-opacity:1" />
  </g>
 </g>
</svg>
