<?xml version="1.0" encoding="UTF-8" standalone="no"?>
<!-- Created with Inkscape (http://www.inkscape.org/) -->

<svg
   width="119.99999mm"
   height="35.173923mm"
   viewBox="0 0 119.99999 35.173924"
   version="1.1"
   id="svg5"
   inkscape:version="1.1.2 (0a00cf5339, 2022-02-04, custom)"
   sodipodi:docname="teknoids_studio.svg"
   inkscape:export-filename="C:\Development\teknoids_studio.png"
   inkscape:export-xdpi="96"
   inkscape:export-ydpi="96"
   xmlns:inkscape="http://www.inkscape.org/namespaces/inkscape"
   xmlns:sodipodi="http://sodipodi.sourceforge.net/DTD/sodipodi-0.dtd"
   xmlns="http://www.w3.org/2000/svg"
   xmlns:svg="http://www.w3.org/2000/svg">
  <sodipodi:namedview
     id="namedview7"
     pagecolor="#ffffff"
     bordercolor="#666666"
     borderopacity="1.0"
     inkscape:pageshadow="2"
     inkscape:pageopacity="0"
     inkscape:pagecheckerboard="false"
     inkscape:document-units="mm"
     showgrid="false"
     inkscape:zoom="2.1997092"
     inkscape:cx="409.14499"
     inkscape:cy="75.46452"
     inkscape:window-width="3840"
     inkscape:window-height="2054"
     inkscape:window-x="-11"
     inkscape:window-y="-11"
     inkscape:window-maximized="1"
     inkscape:current-layer="g21"
     showguides="true"
     inkscape:guide-bbox="true"
     fit-margin-top="0"
     fit-margin-left="0"
     fit-margin-right="0"
     fit-margin-bottom="0">
    <sodipodi:guide
       position="60.000001,35.173924"
       orientation="-1,0"
       id="guide2283"
       inkscape:label=""
       inkscape:locked="false"
       inkscape:color="rgb(0,0,255)" />
  </sodipodi:namedview>
  <defs
     id="defs2" />
  <g
     inkscape:label="Layer 1"
     inkscape:groupmode="layer"
     id="layer1"
     transform="translate(-11.829707,-10.419346)">
    <g
       style="fill:#ebe0d0;fill-opacity:1;stroke:#ebe0d0;stroke-opacity:1"
       id="g21"
       transform="matrix(0.64645495,-0.00338486,0.00338486,0.64645495,26.749294,29.988094)">
      <path
         id="path5836"
         d="m 116.09709,23.740741 c 0,0 -5.88624,-4.476965 -5.88624,-4.476965 0,0 -7.25859,-16.4297134 -7.25859,-16.4297134 0,0 1.73711,-2.83406243320799 1.73711,-2.83406243320799 0,0 11.65458,0 11.65458,0 0,0 4.90394,2.84042973320799 4.90394,2.84042973320799 0,0 11.04377,16.4755231 11.04377,16.4755231 0,0 -0.92835,4.469214 -0.92835,4.469214 0,0 -15.26622,-0.04443 -15.26622,-0.04443 m 1.01696,-5.637917 c 0,0 7.003,0.01554 7.003,0.01554 0,0 0.38265,-1.295597 0.38265,-1.295597 0,0 -7.38078,-12.1951607 -7.38078,-12.1951607 0,0 -1.62688,-0.9590218 -1.62688,-0.9590218 0,0 -5.87947,-0.00264 -5.87947,-0.00264 0,0 -0.53122,0.9571011 -0.53122,0.9571011 0,0 6.17605,12.1806874 6.17605,12.1806874 0,0 1.85665,1.299095 1.85665,1.299095 m -20.052086,5.582524 c 0,0 -1.63385,-5.593208 -1.63385,-5.593208 0,0 2.719629,0.006 2.719629,0.006 0,0 -4.694626,-14.4664883 -4.694626,-14.4664883 0,0 -2.249384,-9.906e-4 -2.249384,-9.906e-4 0,0 -1.060572,-3.630697326542 -1.060572,-3.630697326542 0,0 9.137057,0 9.137057,0 0,0 1.491982,3.634967926542 1.491982,3.634967926542 0,0 -2.281585,-9.906e-4 -2.281585,-9.906e-4 0,0 5.467305,14.4771549 5.467305,14.4771549 0,0 2.75859,0.0061 2.75859,0.0061 0,0 2.29973,5.602897 2.29973,5.602897 0,0 -11.954276,-0.03479 -11.954276,-0.03479 M 72.066877,23.61261 c 0,0 -1.048672,-23.61260983320799 -1.048672,-23.61260983320799 0,0 12.871454,0 12.871454,0 0,0 5.147802,3.95441993320799 5.147802,3.95441993320799 0,0 3.616236,13.6844719 3.616236,13.6844719 0,0 -3.76862,6.02266 -3.76862,6.02266 0,0 -16.8182,-0.04894 -16.8182,-0.04894 m 5.917192,-5.596604 c 0,0 7.035136,0.01561 7.035136,0.01561 0,0 1.361429,-1.937508 1.361429,-1.937508 0,0 -2.212493,-10.9855389 -2.212493,-10.9855389 0,0 -1.780219,-1.4548721 -1.780219,-1.4548721 0,0 -5.97194,-0.0027 -5.97194,-0.0027 0,0 1.568087,14.364996 1.568087,14.364996 M 48.63989,23.544436 c 0,0 -2.782014,-4.432726 -2.782014,-4.432726 0,0 4.311855,-19.11170983320798 4.311855,-19.11170983320798 0,0 4.973557,0 4.973557,0 0,0 -2.687847,16.67435583320798 -2.687847,16.67435583320798 0,0 0.940796,1.287097 0.940796,1.287097 0,0 6.664011,0.01478 6.664011,0.01478 0,0 1.236275,-1.283671 1.236275,-1.283671 0,0 1.118628,-16.692566833208 1.118628,-16.692566833208 0,0 4.988628,0 4.988628,0 0,0 -0.04603,19.162513833208 -0.04603,19.162513833208 0,0 -3.877402,4.425109 -3.877402,4.425109 0,0 -14.840462,-0.04319 -14.840462,-0.04319 m -19.807971,-0.05764 c 0,0 7.538106,-19.5849683 7.538106,-19.5849683 0,0 -5.729634,-0.00275 -5.729634,-0.00275 0,0 1.77621,-3.899056423209 1.77621,-3.899056423209 0,0 15.882969,0 15.882969,0 0,0 -0.976132,3.907118823209 -0.976132,3.907118823209 0,0 -5.745179,-0.00281 -5.745179,-0.00281 0,0 -6.285569,19.6012539 -6.285569,19.6012539 0,0 -6.460771,-0.0188 -6.460771,-0.0188 M 3.3949006e-7,23.40289 c 0,0 3.92736506050994,-5.846228 3.92736506050994,-5.846228 0,0 12.4222826,0.02711 12.4222826,0.02711 0,0 1.805504,-1.267698 1.805504,-1.267698 0,0 1.504602,-2.846599 1.504602,-2.846599 0,0 -0.456672,-1.164561 -0.456672,-1.164561 0,0 -9.2324928,-0.01409 -9.2324928,-0.01409 0,0 -0.9870622,-3.5274054 -0.9870622,-3.5274054 0,0 4.063221,-5.960638 4.063221,-5.960638 0,0 4.836438,-2.80278143320798 4.836438,-2.80278143320798 0,0 12.729733,0 12.729733,0 0,0 -1.841068,3.84429823320798 -1.841068,3.84429823320798 0,0 -10.369901,-0.00495 -10.369901,-0.00495 0,0 -1.557795,0.9508549 -1.557795,0.9508549 0,0 -1.130814,1.8272991 -1.130814,1.8272991 0,0 0.384164,1.0190302 0.384164,1.0190302 0,0 8.761609,0.0083 8.761609,0.0083 0,0 1.639898,3.4081264 1.639898,3.4081264 0,0 -3.726306,8.004183 -3.726306,8.004183 0,0 -5.873627,4.394908 -5.873627,4.394908 0,0 -16.89907866050991,-0.04918 -16.89907866050991,-0.04918"
         style="fill:#ffcc00;fill-opacity:1;stroke:#ebe0d0;stroke-width:0.0598551;stroke-opacity:1" />
    </g>
    <path
       id="path8694"
       d="m 112.64704,28.042558 c 0,0 1.73806,-4.111838 1.73806,-4.111838 0,0 6.27153,-0.02702 6.27153,-0.02702 0,0 0.94224,-1.974797 0.94224,-1.974797 0,0 -4.95696,-0.0037 -4.95696,-0.0037 0,0 -1.04336,-2.181642 -1.04336,-2.181642 0,0 2.78449,-6.661037 2.78449,-6.661037 0,0 3.21812,-2.56477 3.21812,-2.56477 0,0 10.08843,-0.01271 10.08843,-0.01271 0,0 -2.58513,5.036889 -2.58513,5.036889 0,0 -6.63354,0.01597 -6.63354,0.01597 0,0 -0.92921,2.022012 -0.92921,2.022012 0,0 5.1484,0.0097 5.1484,0.0097 0,0 0.84771,2.255449 0.84771,2.255449 0,0 -3.1941,6.158712 -3.1941,6.158712 0,0 -2.87785,1.992549 -2.87785,1.992549 0,0 -8.8188,0.04618 -8.8188,0.04618 0,0 0,0 0,0 m -14.368963,0.07524 c 0,0 5.155813,-17.57713 5.155813,-17.57713 0,0 10.8508,-0.01367 10.8508,-0.01367 0,0 1.59558,4.022828 1.59558,4.022828 0,0 -4.16264,10.333297 -4.16264,10.333297 0,0 -4.06005,3.185565 -4.06005,3.185565 0,0 -9.379503,0.04911 -9.379503,0.04911 0,0 0,0 0,0 m 5.886153,-3.265804 c 0,0 2.66188,-0.012 2.66188,-0.012 0,0 3.67977,-10.22683 3.67977,-10.22683 0,0 -2.89821,0.0063 -2.89821,0.0063 0,0 -3.44344,10.232482 -3.44344,10.232482 0,0 0,0 0,0 m -15.735378,3.317374 c 0,0 0.863068,-4.219413 0.863068,-4.219413 0,0 1.737837,-0.0075 1.737837,-0.0075 0,0 1.792386,-8.160293 1.792386,-8.160293 0,0 -1.860465,0.0046 -1.860465,0.0046 0,0 1.07013,-5.231731 1.07013,-5.231731 0,0 9.170762,-0.01155 9.170762,-0.01155 0,0 -1.440962,5.221798 -1.440962,5.221798 0,0 -1.854653,0.0045 -1.854653,0.0045 0,0 -2.127008,8.152356 -2.127008,8.152356 0,0 1.732788,-0.0075 1.732788,-0.0075 0,0 -1.162639,4.213158 -1.162639,4.213158 0,0 -7.921244,0.04148 -7.921244,0.04148 0,0 0,0 0,0 m -11.998388,0.06282 c 0,0 -1.730564,-1.990768 -1.730564,-1.990768 0,0 1.036353,-13.080325 1.036353,-13.080325 0,0 2.394573,-2.58856 2.394573,-2.58856 0,0 9.699523,-0.01222 9.699523,-0.01222 0,0 1.691305,2.575388 1.691305,2.575388 0,0 -2.46306,13.046568 -2.46306,13.046568 0,0 -2.257257,2.006084 -2.257257,2.006084 0,0 -8.370873,0.04383 -8.370873,0.04383 0,0 0,0 0,0 m 3.358341,-3.270437 c 0,0 2.534132,-0.01139 2.534132,-0.01139 0,0 1.492536,-10.278825 1.492536,-10.278825 0,0 -2.761855,0.006 -2.761855,0.006 0,0 -1.264813,10.284199 -1.264813,10.284199 0,0 0,0 0,0 M 60.953573,28.31318 c 0,0 -0.77155,-17.71808 -0.77155,-17.71808 0,0 5.122383,-0.0065 5.122383,-0.0065 0,0 2.99333,9.289593 2.99333,9.289593 0,0 0.19725,-9.29361 0.19725,-9.29361 0,0 5.063813,-0.0064 5.063813,-0.0064 0,0 -1.072342,17.674545 -1.072342,17.674545 0,0 -4.366925,0.02286 -4.366925,0.02286 0,0 -2.799627,-8.363484 -2.799627,-8.363484 0,0 0.01465,8.378067 0.01465,8.378067 0,0 -4.380986,0.02294 -4.380986,0.02294 0,0 0,0 0,0 m -14.769783,0.07733 c 0,0 -3.149128,-17.773817 -3.149128,-17.773817 0,0 5.701263,-0.0072 5.701263,-0.0072 0,0 0.916135,6.901643 0.916135,6.901643 0,0 2.457771,-6.905893 2.457771,-6.905893 0,0 6.454127,-0.0081 6.454127,-0.0081 0,0 -4.139171,8.84506 -4.139171,8.84506 0,0 5.014413,8.878914 5.014413,8.878914 0,0 -5.492068,0.02876 -5.492068,0.02876 0,0 -3.777284,-6.938042 -3.777284,-6.938042 0,0 0.922979,6.952987 0.922979,6.952987 0,0 -4.909005,0.0257 -4.909005,0.0257 0,0 -3.2e-5,0 -3.2e-5,0 m -13.27496,0.06956 c 0,0 -5.301724,-17.823892 -5.301724,-17.823892 0,0 12.93079,-0.01628 12.93079,-0.01628 0,0 1.039642,5.287431 1.039642,5.287431 0,0 -6.891886,0.01683 -6.891886,0.01683 0,0 0.587937,2.326681 0.587937,2.326681 0,0 5.968731,-0.01767 5.968731,-0.01767 0,0 0.77564,3.816768 0.77564,3.816768 0,0 -5.778762,0.02205 -5.778762,0.02205 0,0 0.531416,2.102989 0.531416,2.102989 0,0 6.427307,-0.02751 6.427307,-0.02751 0,0 0.836645,4.254395 0.836645,4.254395 0,0 -11.125768,0.05825 -11.125768,0.05825 0,0 3.2e-5,0 3.2e-5,0 m -10.052407,0.05264 c 0,0 -4.876323,-12.547776 -4.876323,-12.547776 0,0 -3.790938,0.0093 -3.790938,0.0093 0,-10e-7 -2.230904,-5.318298 -2.230904,-5.318298 0,0 13.666854,-0.01721 13.666854,-0.01721 0,0 1.659453,5.303538 1.659453,5.303538 0,0 -3.7753,0.0092 -3.7753,0.0092 0,0 4.307349,12.535302 4.307349,12.535302 0,0 -4.960242,0.02597 -4.960242,0.02597 0,0 0,0 0,0"
       style="fill:#ff0080;fill-opacity:1;stroke:#ff0080;stroke-width:0.171043;stroke-miterlimit:4;stroke-dasharray:none;stroke-opacity:1" />
  </g>
</svg>
