<?xml version="1.0" encoding="UTF-8"?>
<svg version="1.1" viewBox="0 0 120 18.179" xmlns="http://www.w3.org/2000/svg">
 <g transform="translate(-11.83 -10.419)">
  <path d="m112.61 28.213 1.7553-4.1045 6.2716-7.49e-4 0.95051-1.9708-4.9569-0.02446-1.0342-2.186 2.8124-6.6493 3.2288-2.5513 10.088 0.02955s-2.6062 5.026-2.6062 5.026l-6.6335-0.01182-0.93768 2.0181 5.1483 0.03127 0.83825 2.259-3.2199 6.1453-2.8862 1.9805s-8.8189 0.0092-8.8189 0.0092m-14.369 0.01505 5.2294-17.555 10.851 0.03178 1.5787 4.0295-4.2059 10.316-4.0734 3.1685s-9.3796 0.0098-9.3796 0.0098m5.8998-3.2411 2.6619-8.49e-4 3.7226-10.211-2.8982-0.0058-3.4863 10.218m-15.749 3.2514 0.88073-4.2158s1.7379-2.21e-4 1.7379-2.21e-4l1.8266-8.1527-1.8605-0.0032 1.092-5.2272 9.1707 0.02686-1.4628 5.2157s-1.8547-0.0033-1.8547-0.0033l-2.1611 8.1434 1.7328-2.42e-4 -1.1803 4.2083s-7.9213 0.0083-7.9213 0.0083m-11.999 0.01256s-1.7222-1.998-1.7222-1.998l1.0911-13.076 2.4054-2.5785 9.6995 0.02841 1.6805 2.5824-2.5177 13.036-2.2656 1.9966s-8.371 0.0088-8.371 0.0088m3.372-3.2563 2.5342-7.75e-4 1.5356-10.272s-2.7619-0.0056-2.7619-0.0056l-1.3079 10.279m-18.849 3.2727-0.69733-17.721 5.1224 0.01496s2.9544 9.302 2.9544 9.302 0.23618-9.2927 0.23618-9.2927l5.0638 0.01481-1.1464 17.67s-4.367 0.0046-4.367 0.0046-2.7646-8.3751-2.7646-8.3751-0.02044 8.3781-0.02044 8.3781-4.381 0.0046-4.381 0.0046m-14.77 0.01546-3.0746-17.787 5.7012 0.01668 0.88722 6.9054s2.4867-6.8955 2.4867-6.8955l6.4541 0.01893s-4.1762 8.8276-4.1762 8.8276 4.9772 8.8998 4.9772 8.8998l-5.4921 0.0058s-3.7482-6.9538-3.7482-6.9538l0.89385 6.9568s-4.9091 0.0051-4.9091 0.0051h-3.2e-5m-13.275 0.01395-5.227-17.846 12.931 0.03788 1.0175 5.2917-6.8919-0.01204 0.57819 2.3291s5.9688 0.0073 5.9688 0.0073l0.75964 3.82-5.7788-0.0022 0.5226 2.1052 6.4274-5.87e-4 0.81882 4.2579s-11.126 0.01165-11.126 0.01165l3.2e-5 1e-6m-10.053 0.01053-4.8237-12.568s-3.7909-0.0066-3.7909-0.0066c0-1e-6 -2.2086-5.3276-2.2086-5.3276l13.667 0.04004 1.6372 5.3104-3.7753-0.0066 4.2548 12.553s-4.9603 0.0052-4.9603 0.0052"/>
 </g>
</svg>
