<?xml version="1.0" encoding="UTF-8"?>
<!-- Created with Inkscape (http://www.inkscape.org/) -->
<svg width="210mm" height="297mm" version="1.1" viewBox="0 0 210 297" xmlns="http://www.w3.org/2000/svg">
 <path d="m222.44 38.991 3.8566-9.1223 13.859-0.03564 2.0898-4.3807-10.954-0.02738-2.2972-4.8477 6.1789-14.778 7.1213-5.6818 22.293 0.010875-5.732 11.173-14.659 0.0101-2.0612 4.4856 11.377 0.04148 1.8645 5.0108-7.0821 13.661-6.3672 4.4127-19.488 0.06837m-31.753 0.11137 11.461-39.004 23.978 0.011781 3.5104 8.9376-9.2385 22.926-8.9842 7.0568s-20.727 0.07269-20.727 0.07269m13.02-7.2278 5.8823-0.01633 8.171-22.691-6.4045 0.00301-7.6488 22.705m-34.785 7.3042 1.9235-9.3645 3.8403-0.01005 3.9923-18.11-4.1113 3e-3 2.385-11.611 20.266 0.010069-3.2044 11.588-4.0984 3e-3 -4.7317 18.091 3.8292-0.01005s-2.5854 9.3494-2.5854 9.3494-17.505 0.06141-17.505 0.06141m-26.514 0.09293s-3.8165-4.4266-3.8165-4.4266l2.3406-29.037s5.3015-5.7378 5.3015-5.7378l21.434 0.010472s3.7275 5.7244 3.7275 5.7244l-5.4932 28.956-4.9958 4.4451-18.498 0.06485m7.4339-7.2479 5.6-0.01557 3.3378-22.815-6.1032 0.00301-2.8347 22.828m-41.635 7.3682s-1.6366-39.34-1.6366-39.34l11.319 0.0050347 6.5788 20.636 0.47173-20.633 11.19 0.0050347-2.4378 39.236-9.6501 0.03384-6.1544-18.579 6e-5 18.601-9.6812 0.03393m-32.639 0.11446-6.8904-39.473 12.599 0.0060417 1.9979 15.326 5.4578-15.323 14.262 0.0070486-9.1809 19.622 11.047 19.732-12.137 0.0426-8.3203-15.418 2.0128 15.44-10.848 0.03805h-7.5e-5m-29.335 0.10303s-11.647-39.593-11.647-39.593l28.575 0.013997 2.277 11.743-15.23 0.01067s1.2902 5.1679 1.2902 5.1679l13.19-0.0162s1.6993 8.4769 1.6993 8.4769l-12.77 0.02657 1.1662 4.6711 14.203-0.03614 1.8324 9.4487s-24.586 0.0862-24.586 0.0862h7e-5m-22.214 0.07793-10.727-27.877-8.3773 6e-3c0 2.2e-5 -4.9093-11.816-4.9093-11.816l30.201 0.014601 3.6466 11.781-8.3427 6e-3 9.4701 27.847-10.961 0.03845" stroke-width="1.0046"/>
</svg>
