<?xml version="1.0" encoding="UTF-8"?>
<svg id="uuid-fcd7fbba-0721-4896-b391-53d288651c7c" data-name="Layer 1" xmlns="http://www.w3.org/2000/svg" xmlns:xlink="http://www.w3.org/1999/xlink" viewBox="0 0 1500 1500">
  <defs>
    <style>
      .uuid-477f6433-e0ab-4e5e-bea5-7ad0208ec2eb {
        fill: #1d75bc;
      }

      .uuid-477f6433-e0ab-4e5e-bea5-7ad0208ec2eb, .uuid-16440b3f-1516-4dd5-8dda-2c3095f8fed8, .uuid-de721d76-42d5-47b6-acc1-5690d96b5fa6, .uuid-4c151fc2-479f-4f2f-b814-ebaa9a100e38, .uuid-3d621f6f-86a1-493c-89f5-1b1d07659937, .uuid-a5d7bf21-400b-44cb-a56a-eae187e15fe3, .uuid-0996632d-97c8-46f5-ade6-3b4f5a020e86, .uuid-f812975f-cc68-47af-993c-67685c33176f, .uuid-60f13562-30d4-49e2-b3a7-c69efa031361, .uuid-906fd46f-6ea8-433b-a0b3-17ea9524f223, .uuid-8197ada9-368e-4b12-a4e5-eb9f11566c58, .uuid-4a01d17a-d02d-4c0d-a0b3-37595fa6bc0b, .uuid-d9baf412-44f2-422e-bc7f-90018b45bfbe, .uuid-142d7d64-892f-4254-8f80-771e0f2f5e64, .uuid-f72ead66-af99-42d1-bf2c-c4ab55cf173c {
        stroke-width: 0px;
      }

      .uuid-16440b3f-1516-4dd5-8dda-2c3095f8fed8 {
        fill: #6d6e71;
      }

      .uuid-de721d76-42d5-47b6-acc1-5690d96b5fa6 {
        fill: #808285;
      }

      .uuid-4c151fc2-479f-4f2f-b814-ebaa9a100e38 {
        fill: #58595b;
      }

      .uuid-3d621f6f-86a1-493c-89f5-1b1d07659937 {
        fill: #28aae2;
      }

      .uuid-9b28aa6f-5461-4f1e-b421-518829cf04c6 {
        opacity: .05;
      }

      .uuid-a5d7bf21-400b-44cb-a56a-eae187e15fe3, .uuid-906fd46f-6ea8-433b-a0b3-17ea9524f223 {
        fill: #231f20;
      }

      .uuid-a5d7bf21-400b-44cb-a56a-eae187e15fe3, .uuid-8197ada9-368e-4b12-a4e5-eb9f11566c58 {
        opacity: .1;
      }

      .uuid-0996632d-97c8-46f5-ade6-3b4f5a020e86 {
        fill: #939598;
      }

      .uuid-f812975f-cc68-47af-993c-67685c33176f {
        fill: #414142;
      }

      .uuid-60f13562-30d4-49e2-b3a7-c69efa031361 {
        fill: #a7a9ac;
      }

      .uuid-8197ada9-368e-4b12-a4e5-eb9f11566c58 {
        fill: #fff;
      }

      .uuid-4a01d17a-d02d-4c0d-a0b3-37595fa6bc0b {
        fill: #ef4137;
      }

      .uuid-d9baf412-44f2-422e-bc7f-90018b45bfbe {
        fill: #414042;
      }

      .uuid-142d7d64-892f-4254-8f80-771e0f2f5e64 {
        fill: url(#uuid-10854b47-8cbe-4f08-9c2e-ae3f89579447);
      }

      .uuid-f72ead66-af99-42d1-bf2c-c4ab55cf173c {
        fill: #bf1e2d;
      }
    </style>
    <radialGradient id="uuid-10854b47-8cbe-4f08-9c2e-ae3f89579447" cx="750" cy="750" fx="750" fy="750" r="750" gradientUnits="userSpaceOnUse">
      <stop offset="0" stop-color="#fff"/>
      <stop offset=".61" stop-color="#fefefd"/>
      <stop offset=".83" stop-color="#fcfdf6"/>
      <stop offset=".98" stop-color="#f9faea"/>
      <stop offset="1" stop-color="#f9fae9"/>
    </radialGradient>
  </defs>
  <rect class="uuid-142d7d64-892f-4254-8f80-771e0f2f5e64" width="1500" height="1500"/>
  <g>
    <rect class="uuid-0996632d-97c8-46f5-ade6-3b4f5a020e86" x="91.51" y="32.92" width="1314.55" height="1214.17"/>
    <rect class="uuid-de721d76-42d5-47b6-acc1-5690d96b5fa6" x="190.6" y="268.37" width="1116.38" height="849.55"/>
    <polygon class="uuid-906fd46f-6ea8-433b-a0b3-17ea9524f223" points="1255.71 1068.17 241.87 1068.17 282.78 346.28 1214.8 346.28 1255.71 1068.17"/>
    <polygon class="uuid-d9baf412-44f2-422e-bc7f-90018b45bfbe" points="1204.72 1027.18 292.86 1027.18 329.66 387.26 1167.92 387.26 1204.72 1027.18"/>
    <polygon class="uuid-60f13562-30d4-49e2-b3a7-c69efa031361" points="190.6 1117.93 241.87 1068.17 1255.71 1068.17 1306.98 1117.93 190.6 1117.93"/>
    <polygon class="uuid-60f13562-30d4-49e2-b3a7-c69efa031361" points="0 1454.54 91.51 1213.29 1406.07 1213.29 1500 1454.54 0 1454.54"/>
    <path class="uuid-de721d76-42d5-47b6-acc1-5690d96b5fa6" d="m249.51,1325.99c-.61,27.09-26.42,49.74-63.87,53.16-37.45,3.41-71.5-17.19-73.32-44.22-.79-11.82.63-17.38.63-17.38,7.89-19.34,34.23-33.44,63.24-36.08,29.98-2.73,61.86,10.89,72.69,29.51,0,0,.79,7.62.62,15.02Z"/>
    <path class="uuid-0996632d-97c8-46f5-ade6-3b4f5a020e86" d="m249.37,1314.13c2.41,24.88-26.29,47.85-64.09,51.3-37.81,3.45-70.41-13.94-72.81-38.82-2.41-24.88,26.29-47.85,64.09-51.29,37.81-3.45,70.41,13.93,72.81,38.81Z"/>
    <path class="uuid-de721d76-42d5-47b6-acc1-5690d96b5fa6" d="m199.13,1318.56c.7,7.22-7.63,13.88-18.59,14.88-10.97,1-20.42-4.04-21.12-11.26-.7-7.22,7.62-13.88,18.59-14.88,10.97-1,20.42,4.04,21.12,11.25Z"/>
    <path class="uuid-a5d7bf21-400b-44cb-a56a-eae187e15fe3" d="m239.37,1196.69c4.16-27.76-14.55-53.39-41.8-57.24-27.25-3.85-52.71,15.54-56.87,43.31-3.95,26.34,12.71,50.75,37.71,56.46l-5.72,81.12s2.37,1.26,6.4,1.69c4.02.44,6.08-1.53,6.08-1.53l5.61-80.06c23.95-.66,44.86-18.83,48.6-43.75Z"/>
    <path class="uuid-f812975f-cc68-47af-993c-67685c33176f" d="m186.92,1320.37s-2.3,2.8-7.64,2.97c-5.34.17-8.68-.98-8.68-.98l-10.63-128.74,16.32-1.26,10.63,128.01Z"/>
    <path class="uuid-4a01d17a-d02d-4c0d-a0b3-37595fa6bc0b" d="m233.45,1156.88c0,35.26-29.45,63.84-65.77,63.84s-65.77-28.58-65.77-63.84,29.45-63.83,65.77-63.83,65.77,28.58,65.77,63.83Z"/>
    <path class="uuid-de721d76-42d5-47b6-acc1-5690d96b5fa6" d="m908.4,1330.11c-2.34,27-29.55,48.06-67.14,49.21-37.59,1.15-70.26-21.46-70.35-48.55-.04-11.84,1.74-17.31,1.74-17.31,9.11-18.83,36.29-31.31,65.42-32.21,30.1-.92,61.05,14.59,70.67,33.82,0,0,.31,7.65-.33,15.03Z"/>
    <path class="uuid-0996632d-97c8-46f5-ade6-3b4f5a020e86" d="m909.02,1318.26c.82,24.98-29.3,46.17-67.25,47.34-37.95,1.16-69.37-18.15-70.19-43.13-.82-24.99,29.29-46.17,67.24-47.34,37.96-1.17,69.39,18.15,70.2,43.12Z"/>
    <path class="uuid-de721d76-42d5-47b6-acc1-5690d96b5fa6" d="m858.6,1319.66c.24,7.25-8.5,13.4-19.51,13.73-11.01.34-20.13-5.26-20.36-12.51-.24-7.25,8.49-13.39,19.5-13.73,11.01-.34,20.13,5.26,20.36,12.5Z"/>
    <path class="uuid-a5d7bf21-400b-44cb-a56a-eae187e15fe3" d="m912.88,1202.39c7.08-27.2-8.83-54.56-35.53-61.1-26.7-6.54-54.08,10.2-61.15,37.41-6.72,25.81,7.27,51.75,31.54,59.92l-14.27,80.12s2.22,1.49,6.18,2.31c3.96.84,6.21-.91,6.21-.91l14.05-79.08c23.89,1.72,46.62-14.26,52.97-38.68Z"/>
    <path class="uuid-f812975f-cc68-47af-993c-67685c33176f" d="m846.82,1321.42s-2.58,2.57-7.9,2.22c-5.33-.35-8.54-1.82-8.54-1.82l2.6-129.12,16.37.32-2.53,128.4Z"/>
    <path class="uuid-4a01d17a-d02d-4c0d-a0b3-37595fa6bc0b" d="m909.85,1163.23c-3.61,35.08-35.83,60.68-71.98,57.18-36.14-3.5-62.52-34.78-58.91-69.86,3.61-35.08,35.83-60.68,71.98-57.18,36.15,3.5,62.52,34.78,58.91,69.86Z"/>
    <polygon class="uuid-0996632d-97c8-46f5-ade6-3b4f5a020e86" points="944.67 1402.09 927.2 1240.32 1353.54 1240.32 1408.27 1402.09 944.67 1402.09"/>
    <polygon class="uuid-de721d76-42d5-47b6-acc1-5690d96b5fa6" points="933.93 1420.43 944.67 1402.09 1408.27 1402.09 1418.32 1417.57 933.93 1420.43"/>
    <polygon class="uuid-16440b3f-1516-4dd5-8dda-2c3095f8fed8" points="933.93 1420.43 944.67 1402.09 927.2 1240.32 918.52 1245.51 933.93 1420.43"/>
    <polygon class="uuid-16440b3f-1516-4dd5-8dda-2c3095f8fed8" points="1418.32 1417.57 1408.27 1402.09 1353.54 1240.32 1361.72 1251.98 1418.32 1417.57"/>
    <path class="uuid-16440b3f-1516-4dd5-8dda-2c3095f8fed8" d="m1043.79,1322c-.43,19.63,21.51,36.69,49,38.1,27.48,1.41,50.11-13.37,50.53-33,.42-19.63-21.51-36.69-48.99-38.1-27.49-1.4-50.12,13.37-50.53,33Z"/>
    <path class="uuid-16440b3f-1516-4dd5-8dda-2c3095f8fed8" d="m1216.83,1322.81c-.41,18.89,20.7,35.3,47.15,36.66,26.45,1.36,48.22-12.86,48.62-31.76.41-18.89-20.69-35.3-47.14-36.65-26.45-1.36-48.23,12.86-48.63,31.75Z"/>
    <path class="uuid-477f6433-e0ab-4e5e-bea5-7ad0208ec2eb" d="m1048.44,1322.16c1.49,18.21,19.77,32.48,45.09,33.37,25.34.89,47.43-14.25,47.57-32.51.07-7.98-1.11-11.67-1.11-11.67-6.08-12.72-24.37-21.21-43.99-21.9-20.28-.71-41.19,9.65-47.74,22.58,0,0-.23,5.16.17,10.13Z"/>
    <path class="uuid-3d621f6f-86a1-493c-89f5-1b1d07659937" d="m1048.06,1314.18c-.63,16.83,19.6,31.2,45.17,32.11,25.57.89,46.82-12.02,47.44-28.86.63-16.83-19.59-31.21-45.16-32.1-25.58-.9-46.82,12.02-47.45,28.85Z"/>
    <path class="uuid-f72ead66-af99-42d1-bf2c-c4ab55cf173c" d="m1219.29,1319.21c.32,18.26,17.64,33.61,42.86,36.04,25.22,2.42,48.25-11.35,49.57-29.57.58-7.96-.37-11.71-.37-11.71-5.25-13.06-22.95-22.65-42.5-24.53-20.19-1.94-41.73,7.14-49.09,19.65,0,0-.57,5.14-.48,10.12Z"/>
    <path class="uuid-4a01d17a-d02d-4c0d-a0b3-37595fa6bc0b" d="m1219.43,1311.22c-1.7,16.77,17.56,32.33,43.03,34.78,25.47,2.44,47.5-9.16,49.2-25.93,1.72-16.76-17.55-32.33-43.02-34.78-25.46-2.44-47.5,9.17-49.21,25.93Z"/>
    <polygon class="uuid-0996632d-97c8-46f5-ade6-3b4f5a020e86" points="728.48 1402.09 728.48 1240.32 298.05 1240.32 264.88 1402.09 728.48 1402.09"/>
    <polygon class="uuid-de721d76-42d5-47b6-acc1-5690d96b5fa6" points="733.85 1420.43 728.48 1402.09 264.88 1402.09 254.83 1417.57 733.85 1420.43"/>
    <polygon class="uuid-16440b3f-1516-4dd5-8dda-2c3095f8fed8" points="733.85 1420.43 728.48 1402.09 728.48 1240.32 733.85 1246.42 733.85 1420.43"/>
    <polygon class="uuid-16440b3f-1516-4dd5-8dda-2c3095f8fed8" points="254.83 1417.57 264.88 1402.09 298.05 1240.32 287.22 1251.98 254.83 1417.57"/>
    <path class="uuid-16440b3f-1516-4dd5-8dda-2c3095f8fed8" d="m666.19,1317.81c.43,19.63-21.51,36.69-49,38.1-27.48,1.41-50.11-13.37-50.53-33-.42-19.63,21.51-36.69,48.99-38.1,27.49-1.41,50.12,13.37,50.53,33Z"/>
    <path class="uuid-16440b3f-1516-4dd5-8dda-2c3095f8fed8" d="m490.5,1319.67c.41,18.89-20.7,35.31-47.15,36.66-26.45,1.36-48.22-12.86-48.62-31.76-.41-18.89,20.7-35.3,47.14-36.65,26.45-1.36,48.22,12.86,48.62,31.75Z"/>
    <path class="uuid-f72ead66-af99-42d1-bf2c-c4ab55cf173c" d="m661.54,1317.97c-1.49,18.21-19.77,32.48-45.1,33.37-25.33.89-47.42-14.25-47.57-32.51-.06-7.98,1.11-11.67,1.11-11.67,6.08-12.72,24.36-21.21,43.99-21.9,20.28-.71,41.19,9.65,47.74,22.59,0,0,.23,5.16-.18,10.13Z"/>
    <path class="uuid-4a01d17a-d02d-4c0d-a0b3-37595fa6bc0b" d="m661.92,1309.99c.63,16.83-19.6,31.2-45.17,32.11-25.57.9-46.82-12.02-47.44-28.85-.63-16.84,19.59-31.21,45.16-32.11,25.58-.9,46.82,12.02,47.45,28.85Z"/>
    <path class="uuid-477f6433-e0ab-4e5e-bea5-7ad0208ec2eb" d="m488.04,1316.06c-.32,18.26-17.64,33.61-42.87,36.03-25.22,2.42-48.25-11.35-49.57-29.56-.58-7.96.37-11.71.37-11.71,5.24-13.07,22.95-22.65,42.5-24.53,20.19-1.94,41.72,7.14,49.09,19.64,0,0,.56,5.14.48,10.13Z"/>
    <path class="uuid-3d621f6f-86a1-493c-89f5-1b1d07659937" d="m487.9,1308.08c1.7,16.76-17.56,32.33-43.02,34.78-25.47,2.45-47.5-9.16-49.2-25.93-1.71-16.77,17.55-32.33,43.02-34.78,25.46-2.45,47.5,9.16,49.21,25.93Z"/>
    <polygon class="uuid-de721d76-42d5-47b6-acc1-5690d96b5fa6" points="350.6 1366.82 347.71 1345.26 300.71 1345.26 298.05 1366.82 350.6 1366.82"/>
    <polygon class="uuid-60f13562-30d4-49e2-b3a7-c69efa031361" points="347.71 1345.26 355.64 1268.14 315.36 1268.14 300.71 1345.26 347.71 1345.26"/>
    <polygon class="uuid-de721d76-42d5-47b6-acc1-5690d96b5fa6" points="334.48 1332.83 341.2 1276.75 326.95 1276.75 317.59 1333.02 334.48 1332.83"/>
    <polygon class="uuid-16440b3f-1516-4dd5-8dda-2c3095f8fed8" points="355.64 1268.14 358.69 1275.12 350.6 1366.82 347.71 1345.26 355.64 1268.14"/>
    <polygon class="uuid-de721d76-42d5-47b6-acc1-5690d96b5fa6" points="962.79 1368.54 968.28 1346.99 1015.28 1346.99 1017.94 1368.54 962.79 1368.54"/>
    <polygon class="uuid-60f13562-30d4-49e2-b3a7-c69efa031361" points="968.28 1346.99 960.35 1269.87 1000.63 1269.87 1015.28 1346.99 968.28 1346.99"/>
    <polygon class="uuid-de721d76-42d5-47b6-acc1-5690d96b5fa6" points="981.51 1334.55 974.79 1278.48 989.03 1278.48 998.39 1334.75 981.51 1334.55"/>
    <polygon class="uuid-16440b3f-1516-4dd5-8dda-2c3095f8fed8" points="960.35 1269.87 953.34 1278.48 962.79 1368.54 968.28 1346.99 960.35 1269.87"/>
    <rect class="uuid-0996632d-97c8-46f5-ade6-3b4f5a020e86" width="1500" height="201.85"/>
    <polygon class="uuid-4c151fc2-479f-4f2f-b814-ebaa9a100e38" points="1500 201.85 0 201.85 91.7 268.38 190.61 268.38 282.78 346.28 1214.8 346.28 1306.97 268.38 1405.87 268.38 1500 201.85"/>
    <rect class="uuid-0996632d-97c8-46f5-ade6-3b4f5a020e86" y="1454.54" width="1500" height="45.46"/>
    <g class="uuid-9b28aa6f-5461-4f1e-b421-518829cf04c6">
      <polygon class="uuid-8197ada9-368e-4b12-a4e5-eb9f11566c58" points="304.95 827.6 717.09 387.06 805.59 387.06 298.69 936.49 304.95 827.6"/>
      <polygon class="uuid-8197ada9-368e-4b12-a4e5-eb9f11566c58" points="293.51 1026.63 895.58 387.06 927.51 387.06 328.8 1026.63 293.51 1026.63"/>
      <polygon class="uuid-8197ada9-368e-4b12-a4e5-eb9f11566c58" points="478.6 1026.63 1044.03 387.06 1159 387.06 606 1026.63 478.6 1026.63"/>
    </g>
  </g>
</svg>